{
  "accessors": [
    {
      "bufferView": 2,
      "componentType": 5126,
      "count": 178,
      "max": [
        2.2346675395965576,
        8.3608560562133789,
        2.4409213066101074
      ],
      "min": [
        -1.84898841381073,
        0,
        -2.2604193687438965
      ],
      "type": "VEC3"
    },
    {
      "bufferView": 2,
      "byteOffset": 2136,
      "componentType": 5126,
      "count": 178,
      "max": [
        1,
        1,
        1
      ],
      "min": [
        -1,
        -1,
        -0.99902057647705078
      ],
      "type": "VEC3"
    },
    {
      "bufferView": 3,
      "componentType": 5126,
      "count": 178,
      "max": [
        0.99338185787200928,
        1,
        1,
        1
      ],
      "min": [
        -1,
        -0.99779760837554932,
        -1,
        1
      ],
      "type": "VEC4"
    },
    {
      "bufferView": 1,
      "componentType": 5126,
      "count": 178,
      "max": [
        0.984375,
        0.85701483488082886
      ],
      "min": [
        0.015625,
        0.015625
      ],
      "type": "VEC2"
    },
    {
      "bufferView": 0,
      "componentType": 5125,
      "count": 408,
      "max": [
        177
      ],
      "min": [
        0
      ],
      "type": "SCALAR"
    },
    {
      "bufferView": 2,
      "byteOffset": 4272,
      "componentType": 5126,
      "count": 84,
      "max": [
        -1.3141010999679565,
        0.76791858673095703,
        2.7283740043640137
      ],
      "min": [
        -1.5032502412796021,
        -0.00018525123596191406,
        1.9602701663970947
      ],
      "type": "VEC3"
    },
    {
      "bufferView": 2,
      "byteOffset": 5280,
      "componentType": 5126,
      "count": 84,
      "max": [
        1,
        1,
        1
      ],
      "min": [
        -1,
        -1,
        -1
      ],
      "type": "VEC3"
    },
    {
      "bufferView": 3,
      "byteOffset": 2848,
      "componentType": 5126,
      "count": 84,
      "max": [
        7.2351679136772873e-07,
        0.89099788665771484,
        0.45400917530059814,
        1
      ],
      "min": [
        -1,
        -0.45401269197463989,
        -0.89099633693695068,
        1
      ],
      "type": "VEC4"
    },
    {
      "bufferView": 0,
      "byteOffset": 1632,
      "componentType": 5125,
      "count": 240,
      "max": [
        83
      ],
      "min": [
        0
      ],
      "type": "SCALAR"
    },
    {
      "bufferView": 2,
      "byteOffset": 6288,
      "componentType": 5126,
      "count": 84,
      "max": [
        1.8968539237976074,
        0.76791858673095703,
        2.7283740043640137
      ],
      "min": [
        1.7077047824859619,
        -0.00018525123596191406,
        1.9602701663970947
      ],
      "type": "VEC3"
    },
    {
      "bufferView": 2,
      "byteOffset": 7296,
      "componentType": 5126,
      "count": 84,
      "max": [
        1,
        1,
        1
      ],
      "min": [
        -1,
        -1,
        -1
      ],
      "type": "VEC3"
    },
    {
      "bufferView": 3,
      "byteOffset": 4192,
      "componentType": 5126,
      "count": 84,
      "max": [
        1.3159044556232402e-06,
        0.98768121004104614,
        0.1564885675907135,
        1
      ],
      "min": [
        -1,
        -0.15648829936981201,
        -0.98768049478530884,
        1
      ],
      "type": "VEC4"
    },
    {
      "bufferView": 0,
      "byteOffset": 2592,
      "componentType": 5125,
      "count": 240,
      "max": [
        83
      ],
      "min": [
        0
      ],
      "type": "SCALAR"
    }
  ],
  "asset": {
    "extras": {
      "author": "Pixel-bit (https://sketchfab.com/Pixel-bit)",
      "license": "CC-BY-4.0 (http://creativecommons.org/licenses/by/4.0/)",
      "source": "https://sketchfab.com/models/d4209402e65a401eb5dca034febec3f7",
      "title": "Waste Bin - Household Props Challenge - Day 24"
    },
    "generator": "Sketchfab-3.22.3",
    "version": "2.0"
  },
  "bufferViews": [
    {
      "buffer": 0,
      "byteLength": 3552,
      "byteOffset": 0,
      "name": "floatBufferViews",
      "target": 34963
    },
    {
      "buffer": 0,
      "byteLength": 1424,
      "byteOffset": 3552,
      "byteStride": 8,
      "name": "floatBufferViews",
      "target": 34962
    },
    {
      "buffer": 0,
      "byteLength": 8304,
      "byteOffset": 4976,
      "byteStride": 12,
      "name": "floatBufferViews",
      "target": 34962
    },
    {
      "buffer": 0,
      "byteLength": 5536,
      "byteOffset": 13280,
      "byteStride": 16,
      "name": "floatBufferViews",
      "target": 34962
    }
  ],
  "buffers": [
    {
      "byteLength": 18816,
      "uri": "scene.bin"
    }
  ],
  "images": [
    {
      "uri": "textures/blinn1_baseColor.png"
    }
  ],
  "materials": [
    {
      "doubleSided": true,
      "emissiveFactor": [
        0,
        0,
        0
      ],
      "name": "blinn1",
      "pbrMetallicRoughness": {
        "baseColorFactor": [
          1,
          1,
          1,
          1
        ],
        "baseColorTexture": {
          "index": 0,
          "texCoord": 0
        },
        "metallicFactor": 0,
        "roughnessFactor": 0.28487042679999997
      }
    },
    {
      "doubleSided": true,
      "emissiveFactor": [
        0,
        0,
        0
      ],
      "name": "lambert1",
      "pbrMetallicRoughness": {
        "baseColorFactor": [
          0.5,
          0.5,
          0.5,
          1
        ],
        "metallicFactor": 0,
        "roughnessFactor": 0.59999999999999998
      }
    }
  ],
  "meshes": [
    {
      "name": "pCube1_blinn1_0",
      "primitives": [
        {
          "attributes": {
            "NORMAL": 1,
            "POSITION": 0,
            "TANGENT": 2,
            "TEXCOORD_0": 3
          },
          "indices": 4,
          "material": 0,
          "mode": 4
        }
      ]
    },
    {
      "name": "pCylinder1_lambert1_0",
      "primitives": [
        {
          "attributes": {
            "NORMAL": 6,
            "POSITION": 5,
            "TANGENT": 7
          },
          "indices": 8,
          "material": 1,
          "mode": 4
        }
      ]
    },
    {
      "name": "pCylinder2_lambert1_0",
      "primitives": [
        {
          "attributes": {
            "NORMAL": 10,
            "POSITION": 9,
            "TANGENT": 11
          },
          "indices": 12,
          "material": 1,
          "mode": 4
        }
      ]
    }
  ],
  "nodes": [
    {
      "children": [
        1
      ],
      "name": "RootNode (gltf orientation matrix)",
      "rotation": [
        -0.70710678118654746,
        -0,
        -0,
        0.70710678118654757
      ]
    },
    {
      "children": [
        2
      ],
      "name": "RootNode (model correction matrix)"
    },
    {
      "children": [
        3
      ],
      "matrix": [
        1,
        0,
        0,
        0,
        0,
        0,
        1,
        0,
        0,
        -1,
        0,
        0,
        0,
        0,
        0,
        1
      ],
      "name": "e5e34145e51147b5b42f81e41e22bc48.fbx"
    },
    {
      "children": [
        4,
        6,
        8
      ],
      "name": "RootNode"
    },
    {
      "children": [
        5
      ],
      "name": "pCube1"
    },
    {
      "mesh": 0,
      "name": "pCube1_blinn1_0"
    },
    {
      "children": [
        7
      ],
      "name": "pCylinder1"
    },
    {
      "mesh": 1,
      "name": "pCylinder1_lambert1_0"
    },
    {
      "children": [
        9
      ],
      "name": "pCylinder2"
    },
    {
      "mesh": 2,
      "name": "pCylinder2_lambert1_0"
    }
  ],
  "samplers": [
    {
      "magFilter": 9729,
      "minFilter": 9987,
      "wrapS": 10497,
      "wrapT": 10497
    }
  ],
  "scene": 0,
  "scenes": [
    {
      "name": "OSG_Scene",
      "nodes": [
        0
      ]
    }
  ],
  "textures": [
    {
      "sampler": 0,
      "source": 0
    }
  ]
}

